<mxfile host="Electron" modified="2024-02-03T01:08:03.847Z" agent="Mozilla/5.0 (X11; Linux x86_64) AppleWebKit/537.36 (KHTML, like Gecko) draw.io/23.0.2 Chrome/120.0.6099.109 Electron/28.1.0 Safari/537.36" etag="ShIon5JVHCUXo32JPt8r" version="23.0.2" type="device">
  <diagram name="Page-1" id="01IfYoLVWbqeuoqbKtWy">
    <mxGraphModel dx="733" dy="443" grid="1" gridSize="10" guides="1" tooltips="1" connect="1" arrows="1" fold="1" page="1" pageScale="1" pageWidth="827" pageHeight="1169" math="0" shadow="0">
      <root>
        <mxCell id="0" />
        <mxCell id="1" parent="0" />
        <mxCell id="avoXo8r0NKNxgi7pIxmb-2" style="edgeStyle=orthogonalEdgeStyle;rounded=0;orthogonalLoop=1;jettySize=auto;html=1;exitX=0.5;exitY=1;exitDx=0;exitDy=0;" edge="1" parent="1" source="avoXo8r0NKNxgi7pIxmb-1">
          <mxGeometry relative="1" as="geometry">
            <mxPoint x="373" y="160" as="targetPoint" />
          </mxGeometry>
        </mxCell>
        <mxCell id="avoXo8r0NKNxgi7pIxmb-1" value="&lt;h1&gt;Data Structure Revision&lt;/h1&gt;" style="rounded=1;whiteSpace=wrap;html=1;" vertex="1" parent="1">
          <mxGeometry x="220" y="10" width="306" height="70" as="geometry" />
        </mxCell>
        <mxCell id="avoXo8r0NKNxgi7pIxmb-4" style="edgeStyle=orthogonalEdgeStyle;rounded=0;orthogonalLoop=1;jettySize=auto;html=1;exitX=0.5;exitY=1;exitDx=0;exitDy=0;" edge="1" parent="1" source="avoXo8r0NKNxgi7pIxmb-3">
          <mxGeometry relative="1" as="geometry">
            <mxPoint x="160" y="260" as="targetPoint" />
          </mxGeometry>
        </mxCell>
        <mxCell id="avoXo8r0NKNxgi7pIxmb-5" style="edgeStyle=orthogonalEdgeStyle;rounded=0;orthogonalLoop=1;jettySize=auto;html=1;exitX=0.5;exitY=1;exitDx=0;exitDy=0;entryX=0.5;entryY=0;entryDx=0;entryDy=0;" edge="1" parent="1" source="avoXo8r0NKNxgi7pIxmb-3" target="avoXo8r0NKNxgi7pIxmb-12">
          <mxGeometry relative="1" as="geometry">
            <mxPoint x="280" y="260" as="targetPoint" />
          </mxGeometry>
        </mxCell>
        <mxCell id="avoXo8r0NKNxgi7pIxmb-15" style="edgeStyle=orthogonalEdgeStyle;rounded=0;orthogonalLoop=1;jettySize=auto;html=1;" edge="1" parent="1" source="avoXo8r0NKNxgi7pIxmb-3">
          <mxGeometry relative="1" as="geometry">
            <mxPoint x="440" y="260" as="targetPoint" />
          </mxGeometry>
        </mxCell>
        <mxCell id="avoXo8r0NKNxgi7pIxmb-3" value="&lt;h3&gt;Sections&lt;/h3&gt;" style="rounded=0;whiteSpace=wrap;html=1;" vertex="1" parent="1">
          <mxGeometry x="273" y="160" width="200" height="60" as="geometry" />
        </mxCell>
        <mxCell id="avoXo8r0NKNxgi7pIxmb-8" style="edgeStyle=orthogonalEdgeStyle;rounded=0;orthogonalLoop=1;jettySize=auto;html=1;exitX=0.5;exitY=1;exitDx=0;exitDy=0;" edge="1" parent="1">
          <mxGeometry relative="1" as="geometry">
            <mxPoint x="160" y="350" as="targetPoint" />
            <mxPoint x="159.5" y="290" as="sourcePoint" />
          </mxGeometry>
        </mxCell>
        <mxCell id="avoXo8r0NKNxgi7pIxmb-7" value="1st Section" style="rounded=0;whiteSpace=wrap;html=1;" vertex="1" parent="1">
          <mxGeometry x="100" y="260" width="120" height="30" as="geometry" />
        </mxCell>
        <mxCell id="avoXo8r0NKNxgi7pIxmb-10" value="What is Data Strucure&lt;br&gt;What is Static Memory Allocation&lt;br&gt;What is DMA&lt;br&gt;Size of any type of Pointer&lt;br&gt;&amp;nbsp;" style="whiteSpace=wrap;html=1;aspect=fixed;align=center;" vertex="1" parent="1">
          <mxGeometry x="100" y="350" width="120" height="120" as="geometry" />
        </mxCell>
        <mxCell id="avoXo8r0NKNxgi7pIxmb-11" style="edgeStyle=orthogonalEdgeStyle;rounded=0;orthogonalLoop=1;jettySize=auto;html=1;exitX=0.5;exitY=1;exitDx=0;exitDy=0;" edge="1" parent="1">
          <mxGeometry relative="1" as="geometry">
            <mxPoint x="290" y="350" as="targetPoint" />
            <mxPoint x="289.5" y="290" as="sourcePoint" />
          </mxGeometry>
        </mxCell>
        <mxCell id="avoXo8r0NKNxgi7pIxmb-12" value="2nd Section" style="rounded=0;whiteSpace=wrap;html=1;" vertex="1" parent="1">
          <mxGeometry x="230" y="260" width="120" height="30" as="geometry" />
        </mxCell>
        <mxCell id="avoXo8r0NKNxgi7pIxmb-13" value="Types of DS.&lt;br&gt;Abstract DS&lt;br&gt;Time and Space Complexity" style="whiteSpace=wrap;html=1;aspect=fixed;align=center;" vertex="1" parent="1">
          <mxGeometry x="230" y="350" width="120" height="120" as="geometry" />
        </mxCell>
        <mxCell id="avoXo8r0NKNxgi7pIxmb-16" style="edgeStyle=orthogonalEdgeStyle;rounded=0;orthogonalLoop=1;jettySize=auto;html=1;exitX=0.5;exitY=1;exitDx=0;exitDy=0;" edge="1" parent="1">
          <mxGeometry relative="1" as="geometry">
            <mxPoint x="440" y="350" as="targetPoint" />
            <mxPoint x="439.5" y="290" as="sourcePoint" />
          </mxGeometry>
        </mxCell>
        <mxCell id="avoXo8r0NKNxgi7pIxmb-17" value="3rd Section" style="rounded=0;whiteSpace=wrap;html=1;" vertex="1" parent="1">
          <mxGeometry x="380" y="260" width="120" height="30" as="geometry" />
        </mxCell>
        <mxCell id="avoXo8r0NKNxgi7pIxmb-18" value="Recursion" style="whiteSpace=wrap;html=1;aspect=fixed;align=center;" vertex="1" parent="1">
          <mxGeometry x="380" y="350" width="120" height="120" as="geometry" />
        </mxCell>
      </root>
    </mxGraphModel>
  </diagram>
</mxfile>
